<?xml version="1.0" encoding="UTF-8" standalone="no"?>
<svg
   width="1066.3369pt"
   height="1079.9806pt"
   version="1.1"
   viewBox="0 0 1066.3369 1079.9806"
   id="svg1"
   xmlns="http://www.w3.org/2000/svg"
   xmlns:svg="http://www.w3.org/2000/svg">
  <defs
     id="defs1" />
  <path
     d="m 100.8433,235.39541 c 48.852,-69.219 123.2,-116.2 206.69,-130.6 83.492,-14.401998 169.29,4.9531 238.5,53.805 69.223,48.852 116.2,123.2 130.61,206.69 14.402,83.492 -4.9531,169.29 -53.805,238.5 -48.852,69.223 -123.2,116.2 -206.69,130.61 -83.492,14.402 -169.29,-4.9492 -238.5,-53.801 -69.18,-48.891 -116.119995,-123.23 -130.519995,-206.71 -14.398,-83.473 4.9219,-169.25 53.722995,-238.49 z m 211.08,-105.12 v 0.004 c -66.93,11.543 -127.79,45.941 -172.21,97.328 -44.413995,51.383 -69.636995,116.58 -71.370995,184.48 -1.7344,67.898 20.125,134.3 61.858995,187.89 41.734,53.586 100.76,91.043 167.01,105.99 66.258,14.949 135.64,6.4609 196.34,-24.016 60.699,-30.477 108.95,-81.059 136.54,-143.12 27.586,-62.066 32.797,-131.78 14.75,-197.26 -18.051,-65.477 -58.246,-122.67 -113.74,-161.84 -31.48,-22.281 -67.059,-38.125 -104.68,-46.609 -37.625,-8.4883 -76.555,-9.4531 -114.55,-2.8398 z m 450.79,612.34 -87.898,-79.094 c -11.488,14.723 -23.992,28.625 -37.418,41.605 l 87.887,79.078 z m -100.48,-105.35 c 0.15625,-0.23828 0.32422,-0.48047 0.50391,-0.70703 v -0.004 c 56.035,-78.914 78.441,-176.85 62.293,-272.28 -16.152,-95.43 -69.535,-180.54 -148.42,-236.62 -78.883,-56.081998 -176.8,-78.542998 -272.24,-62.452998 -95.441,16.094 -180.58,69.429998 -236.709995,148.279998 -56.129,78.848 -78.648,176.76 -62.613,272.21 16.035,95.449 69.316,180.62 148.129995,236.8 78.816,56.176 176.71,78.758 272.17,62.777 95.457,-15.98 180.66,-69.211 236.89,-147.99 z m -187.67,-63.289 h 45.215 v -166.44 h -45.215 z m -134.22,0 h 45.227 v -207.21 h -45.262 v 207.21 z m -134.22,0 h 45.227 v -125.04 h -45.23 v 125.04 z m 357.36,0 h -17.785 v -179.4 c 0,-7.1562 -5.8008,-12.957 -12.961,-12.957 h -71.137 c -7.1562,0 -12.957,5.8008 -12.957,12.957 v 179.4 h -37.199 l -0.004,-220.17 c 0,-7.1602 -5.8008,-12.961 -12.957,-12.961 h -71.102 c -3.4375,-0.004 -6.7344,1.3594 -9.168,3.793 -2.4297,2.4297 -3.7969,5.7305 -3.793,9.168 v 220.18 h -37.199 v -138 c 0,-7.1602 -5.8008,-12.961 -12.961,-12.961 h -71.098 c -3.4375,-0.004 -6.7383,1.3633 -9.168,3.793 -2.4336,2.4297 -3.7969,5.7305 -3.793,9.168 v 138 h -17.785 c -7.1562,0 -12.957,5.8008 -12.957,12.961 0,7.1562 5.8008,12.957 12.957,12.957 h 401.09 c 7.1562,0 12.961,-5.8008 12.961,-12.957 0,-7.1602 -5.8047,-12.961 -12.961,-12.961 z m -325.42,-242.94 c -3.7734,-3.7773 -9.4531,-4.9062 -14.387,-2.8672 -4.9336,2.043 -8.1484,6.8594 -8.1484,12.199 0,5.3398 3.2148,10.152 8.1484,12.195 4.9336,2.043 10.613,0.91016 14.387,-2.8672 5.1523,-5.1523 5.1523,-13.504 0,-18.66 z m 134.22,-106.73 c -3.7734,-3.7773 -9.4492,-4.9102 -14.383,-2.8672 -4.9375,2.043 -8.1523,6.8555 -8.1523,12.195 0,5.3398 3.2148,10.156 8.1523,12.199 4.9336,2.0391 10.609,0.91016 14.383,-2.8672 5.1523,-5.1562 5.1523,-13.508 0,-18.66 z m 134.22,80.578 c -3.7734,-3.7773 -9.4531,-4.9062 -14.387,-2.8633 -4.9336,2.0391 -8.1523,6.8555 -8.1523,12.195 0,5.3395 3.2188,10.152 8.1523,12.195 4.9336,2.043 10.613,0.91016 14.387,-2.8672 5.1484,-5.1523 5.1484,-13.504 0,-18.66 z m -365.51,8.0156 48.852,23.281 c -1.2617,11.809 2.9062,23.551 11.336,31.914 8.4258,8.3672 20.199,12.449 31.996,11.102 11.797,-1.3516 22.344,-7.9883 28.664,-18.043 6.3164,-10.051 7.7305,-22.43 3.832,-33.648 l 76.43,-60.77 h -0.004 c 6.9844,4.4023 15.184,6.4766 23.418,5.9336 8.2383,-0.54297 16.09,-3.6758 22.438,-8.957 l 70.906,42.574 v 0.004 c -2.4961,12.168 0.93359,24.801 9.2461,34.031 8.3086,9.2344 20.512,13.973 32.875,12.766 12.363,-1.207 23.418,-8.2109 29.789,-18.879 6.3672,-10.664 7.293,-23.723 2.4883,-35.18 l 28.922,-26.137 c 5.2852,-4.7812 5.6914,-12.941 0.91016,-18.227 -4.7812,-5.2852 -12.941,-5.6953 -18.227,-0.91016 l -28.906,26.125 v -0.004 c -6.8789,-3.7539 -14.727,-5.3555 -22.527,-4.5938 -7.7969,0.75781 -15.191,3.8438 -21.215,8.8555 l -70.922,-42.562 0.004,-0.004 c 2.4766,-11.961 -0.77344,-24.395 -8.7891,-33.609 -8.0195,-9.2188 -19.879,-14.16 -32.07,-13.363 -12.191,0.79688 -23.309,7.2422 -30.059,17.422 -6.7461,10.184 -8.3516,22.934 -4.3359,34.473 l -76.43,60.77 c -7.5195,-4.7305 -16.43,-6.7617 -25.258,-5.7539 -8.8281,1.0039 -17.051,4.9844 -23.316,11.285 l -48.863,-23.281 c -6.457,-3.0742 -14.188,-0.33203 -17.262,6.125 -3.0742,6.4609 -0.33203,14.188 6.125,17.262 z m 672.9421,612.514 c 0.35938,0.30078 0.70703,0.61328 1.0312,0.9375 l 114.82,103.30999 v 0 c 10.176,9.1016 23.543,13.805 37.18,13.086 13.637,-0.719 26.434,-6.8047 35.598,-16.926 l 29.93,-33.27699 c 8.8281,-10.148 13.371,-23.328 12.668,-36.762 -0.703,-13.434 -6.5977,-26.06601 -16.438,-35.23801 -0.3242,-0.26562 -0.6367,-0.55078 -0.9336,-0.85156 l -201.99998,-181.69 c -3.5469,-3.1758 -8.207,-4.8203 -12.965,-4.5664 -4.7539,0.25 -9.2148,2.375 -12.406,5.9102 l -74.785,83.125 h 0.004 c -2.9492,3.5078 -4.4531,8.0078 -4.2148,12.586 0.24219,4.5742 2.2109,8.8906 5.5078,12.074 z"
     fill-rule="evenodd"
     id="path1"
     style="fill:#12436d;fill-opacity:1" />
  <path
     d="m 939.7233,0 h -55.824 v 20.292999 c 0,5.6875 -3.7227,10.707 -9.168,12.359 -7.5859,2.355501 -14.957,5.3594 -22.031,8.976603 -5.1328,3.3242 -11.891,2.6094 -16.211,-1.718803 l -14.398,-14.397999 -39.48,39.480002 14.398,14.398 c 4.0195,4.0195 4.9375,10.191 2.2656,15.207 -3.6758,6.996098 -6.7422,14.300998 -9.168,21.827998 -1.2695,5.9883 -6.5586,10.273 -12.684,10.27 h -20.289 v 55.848 h 20.293 -0.004 c 5.6914,-0.004 10.707,3.7227 12.348,9.168 2.3633,7.5547 5.3672,14.891 8.9883,21.926 3.3242,5.1289 2.6094,11.879 -1.7148,16.199 l -14.398,14.398 39.48,39.492 14.398,-14.398 c 4.0195,-4.0156 10.188,-4.9375 15.203,-2.2695 6.9961,3.6797 14.293,6.7461 21.816,9.168 5.9961,1.2656 10.285,6.5586 10.285,12.684 v 20.293 h 55.848 v -20.16 c 0,-5.6875 3.7227,-10.703 9.168,-12.348 7.5508,-2.3594 14.887,-5.3672 21.922,-8.9883 5.1328,-3.3164 11.883,-2.6016 16.203,1.7188 l 14.398,14.398 39.492,-39.492 -14.398,-14.398 c -4.0234,-4.0234 -4.9453,-10.199 -2.2695,-15.219 3.6758,-6.9961 6.7422,-14.293 9.168,-21.816 1.2656,-5.9922 6.5547,-10.285 12.684,-10.281 h 20.293 v -55.875 h -20.16 c -5.6875,0.004 -10.707,-3.7188 -12.348,-9.168 -2.3633,-7.5469 -5.3711,-14.879 -8.9883,-21.909998 -3.3203,-5.1328 -2.6055,-11.887 1.7148,-16.211 l 14.398,-14.398 -39.527,-39.496003 -14.398,14.398 v 0.0039 c -4.0156,4.019503 -10.188,4.937503 -15.203,2.265603 -6.9961,-3.675803 -14.293,-6.742203 -21.816,-9.168002 -5.9961,-1.265601 -10.285,-6.5547 -10.285,-12.684 z m 9.8281,116.93 c 12.602,12.605 18.078,30.672 14.598,48.152 -3.48,17.48 -15.457,32.074 -31.926,38.895 -16.469,6.8203 -35.254,4.9688 -50.074,-4.9336 -14.824,-9.9023 -23.723,-26.551 -23.727,-44.375 0.008,-14.156 5.6328,-27.727 15.645,-37.734 10.012,-10.008 23.586,-15.629 37.742,-15.633 14.156,0 27.73,5.6211 37.742,15.629 z m -37.754,-41.554998 0.004,-0.004 c 21.027,0 41.199,8.3555 56.07,23.227 14.871,14.871498 23.223,35.038998 23.223,56.069998 0,21.031 -8.3516,41.199 -23.223,56.07 -14.871,14.871 -35.043,23.227 -56.07,23.227 -21.031,0 -41.203,-8.3555 -56.074,-23.227 -14.867,-14.871 -23.223,-35.039 -23.223,-56.07 0.004,-21.031 8.3594,-41.195 23.227,-56.065998 14.871,-14.871 35.039,-23.227 56.07,-23.23 z"
     style="fill:#801650;fill-opacity:1;fill-rule:evenodd"
     id="path1-9" />
  <path
     d="m 723.03737,878.80497 c -19.60199,0.16797 -38.72299,6.0703 -55.012,16.973 -16.289,10.906 -29.031,26.336 -36.656,44.39504 -1.9297,4.9961 -6.7305,8.2891 -12.082,8.293 H 297.46739 c -5.24221,0.016 -9.98024,-3.1235 -12,-7.957 -9.34744,-22.36952 -26.449,-40.61304 -48.176,-51.36704 -21.723,-10.758 -46.602,-13.305 -70.055,-7.1758 -23.453,6.1328 -43.902,20.531 -57.582,40.543 h 83.293 c 4.6133,-0.004 8.8789,2.457 11.184,6.457 l 27.133,46.98004 h -0.004 c 2.3047,3.9844 2.3047,8.8984 0,12.887 l -26.52,45.94899 c -2.1133,4.6094 -6.7227,7.5703 -11.793,7.5703 h -78.637 c 21.441,26.703 54.992,40.668 89.047,37.07 34.05899,-3.6016 63.949,-24.27 79.336,-54.867 1.9922,-4.8711 6.7344,-8.0547 12,-8.0508 h 327.40999 c 4.9219,0 9.41409,2.793 11.594,7.1992 15.234,30.801 45.105,51.723 79.262,55.504 34.152,3.7812 67.879,-10.098 89.48,-36.82 h -78.695 c -4.6172,0 -8.8867,-2.4648 -11.195,-6.4648 l -26.652,-46.27299 c -2.7305,-4.0938 -2.8984,-9.3867 -0.42969,-13.645 l 26.652,-46.16404 c 2.1641,-4.4688 6.6953,-7.3008 11.664,-7.2969 h 47.27 c -16.105,-14.535 -32.105,-29.117 -48,-43.738 z"
     style="fill:#28a197;fill-opacity:1;fill-rule:evenodd"
     id="path1-7" />
</svg>
